<svg xmlns="http://www.w3.org/2000/svg">
	<path d="M325.57,478.165c83.44,0,151.2-67.8,151.658-150.841l0.936-122.091l-1.395-6.595l-4.104-8.348l-6.674-5.32
		c-8.826-6.834-53.295,0.478-65.389-10.36c-8.448-7.85-9.802-21.896-12.492-41.003c-4.762-36.759-7.89-38.771-13.568-51.223
		C353.543,38.014,296.582,4.642,257.651,0H151.518C68.158,0,0,67.959,0,151.08v176.244c0,83.041,68.158,150.841,151.499,150.841
		H325.57z M153.431,123.466h84.057c16.058,0,29.088,12.95,29.088,28.809c0,15.799-13.01,28.909-29.088,28.909h-84.057
		c-15.959,0-28.969-13.11-28.969-28.909C124.462,136.396,137.472,123.466,153.431,123.466z M124.462,325.052
		c0-15.879,13.01-28.61,28.969-28.61h170.705c15.919,0,28.929,12.731,28.929,28.61c0,15.72-13.01,28.849-28.929,28.849H153.431
		C137.472,353.902,124.462,340.772,124.462,325.052z"/>
</svg>
