<svg xmlns="http://www.w3.org/2000/svg" xmlns:xlink="http://www.w3.org/1999/xlink" x="0px" y="0px"
	 width="533.333px" height="533.333px" viewBox="0 0 533.333 533.333" style="enable-background:new 0 0 533.333 533.333;">
<g>
	<path d="M498.852,200h-29.275h-0.624c-18.316,0-34.369-15.491-35.62-33.333l0,0C433.335,71.527,356.636,0,260.838,0H173.43
		C77.694,0,0.067,77.083,0,172.222V361.18c0,95.131,77.694,172.153,173.429,172.153h186.677
		c95.807,0,173.228-77.022,173.228-172.153V239.105C533.333,220.094,518,200,498.852,200z M166.667,133.333h100
		c18.333,0,33.333,15,33.333,33.333S285,200,266.667,200h-100c-18.333,0-33.333-15-33.333-33.333S148.333,133.333,166.667,133.333z
		 M366.667,400h-200c-18.333,0-33.333-15-33.333-33.333s15-33.334,33.333-33.334h200C385,333.333,400,348.334,400,366.667
		S385,400,366.667,400z"/>
</g>
</svg>
